<?xml version="1.0" encoding="iso-8859-1"?>
<svg version="1.1" id="Capa_1" xmlns="http://www.w3.org/2000/svg" xmlns:xlink="http://www.w3.org/1999/xlink" x="0px" y="0px"
	 viewBox="0 0 488.903 488.903" style="enable-background:new 0 0 488.903 488.903;" xml:space="preserve">
<g>
	<path d="M317.002,233.664c9.3-5.4,24.4-5.4,33.8,0s9.4,14.2,0.1,19.6s-24.4,5.4-33.8,0
		C307.802,247.864,307.802,239.064,317.002,233.664z M139.102,150.464c9.4,5.4,24.5,5.4,33.8,0s9.3-14.2-0.1-19.6
		c-9.4-5.4-24.5-5.4-33.8,0C129.702,136.264,129.702,145.064,139.102,150.464z M12.302,140.464l142.8-83c15.3-8.9,40.3-8.9,55.7,0
		l266.5,153.9c15.4,8.9,15.5,23.4,0.1,32.3l-142.8,83c-15.3,8.9-40.3,8.9-55.7,0l-266.4-153.9
		C-2.898,163.864-2.998,149.364,12.302,140.464z M70.502,172.764c-1.8,1-3.7,1.9-5.7,2.7l206.9,119.5c1-0.7,2.1-1.5,3.3-2.2
		c15.5-9,40.7-9,56.4,0c2.4,1.4,4.4,2.9,6.1,4.5l86.2-50.1c-2.8-1-5.5-2.1-7.9-3.5c-15.6-9-15.7-23.6-0.2-32.7
		c2.4-1.4,4.9-2.5,7.7-3.5l-207.5-119.7c-1.3,1.2-2.9,2.3-4.7,3.3c-15.5,9-40.8,9-56.4,0c-1.7-1-3.2-2-4.5-3.1l-85.3,49.6
		c1.9,0.8,3.7,1.6,5.4,2.6C86.002,149.164,86.002,163.764,70.502,172.764z M5.002,217.664l279.2,161.2l3.9,2.3l5.6,3.2
		c7.9,4.6,20.6,4.6,28.5,0l160.1-93c6.5-3.8,6.5-10-0.1-13.8s-17.2-3.8-23.8,0l-150.6,87.5l-278.5-160.8c-6.5-3.7-17-4.3-23.8-0.8
		C-1.698,207.264-1.798,213.764,5.002,217.664z M482.502,327.864c-6.6-3.8-17.2-3.8-23.8,0l-150.6,87.6l-278.5-160.9
		c-6.5-3.7-17-4.3-23.8-0.8c-7.2,3.8-7.4,10.2-0.6,14.1l279.3,161.3l4,2.3l5.6,3.2c7.9,4.6,20.6,4.6,28.5,0l160.1-93
		C489.202,337.864,489.102,331.664,482.502,327.864z M183.702,156.664c33.6-19.5,88.4-19.5,122.2,0s33.9,51.2,0.3,70.7
		c-33.5,19.5-88.3,19.5-122.1,0C150.302,207.964,150.102,176.164,183.702,156.664z M211.502,175.164v13.3v13.7h23.8l54.5,0.1v-13.8
		l-54.4-0.1v-13.3L211.502,175.164z"/>
</g>
<g>
</g>
<g>
</g>
<g>
</g>
<g>
</g>
<g>
</g>
<g>
</g>
<g>
</g>
<g>
</g>
<g>
</g>
<g>
</g>
<g>
</g>
<g>
</g>
<g>
</g>
<g>
</g>
<g>
</g>
</svg>
